<?xml version="1.0" encoding="utf-8"?>
<!-- Generator: Adobe Illustrator 26.2.1, SVG Export Plug-In . SVG Version: 6.00 Build 0)  -->
<svg version="1.1" id="Plancise" xmlns="http://www.w3.org/2000/svg" xmlns:xlink="http://www.w3.org/1999/xlink" x="0px" y="0px"
	 width="362.8px" height="362.8px" viewBox="0 0 362.8 362.8" style="enable-background:new 0 0 362.8 362.8;" xml:space="preserve"
	>
<style type="text/css">
	.st0{fill:url(#SVGID_1_);}
	.st1{fill:#FFFFFF;}
</style>
<linearGradient id="SVGID_1_" gradientUnits="userSpaceOnUse" x1="36.5466" y1="36.5443" x2="276.1221" y2="276.1198">
	<stop  offset="0" style="stop-color:#2BB4E4"/>
	<stop  offset="0.1887" style="stop-color:#2AAFDF"/>
	<stop  offset="0.4141" style="stop-color:#25A5D4"/>
	<stop  offset="0.6583" style="stop-color:#1C95C4"/>
	<stop  offset="0.914" style="stop-color:#0F81AF"/>
	<stop  offset="1" style="stop-color:#0679A8"/>
</linearGradient>
<path class="st0" d="M249.5,10.7C231.7,3.4,213.4,0,195.4,0v0H95.8v0.1C63.2,1.5,37.1,28.3,37.1,61.3c0,23.5,13.2,43.8,32.6,54.1
	c-17,15.9-30.3,36.1-38.1,59.8c-23.3,71,12.7,148.8,81.9,177c17.7,7.2,36,10.6,54,10.6v0h17.7c5.6,0,10.2-4.6,10.2-10.2v-66.6
	c59.6,0,115.5-37.6,135.7-97.8C354.8,117.1,318.9,38.9,249.5,10.7z"/>
<path class="st1" d="M232.6,47.9c-12.2-4.8-24.8-7-37.2-7v0h-81.7V30.6c0-1.8-2.2-2.7-3.5-1.4L78,61.3l32.2,32.2
	c1.3,1.3,3.5,0.4,3.5-1.4V81.7h81.7v0c8.1,0,16.3,1.6,24.2,5c28.8,12.4,43.7,45.2,34.1,75.1c-10.7,33.1-46.5,50.5-78.9,38.9
	c-9.2-3.3-19.6-0.1-24.7,8.2c-7,11.5-1.6,25.7,10.3,30.1c53.7,19.6,113.2-8.8,131.7-63.3C309.6,124.3,283.1,67.6,232.6,47.9z"/>
<path class="st1" d="M201.7,123.6c-52.8-18.8-111,8.5-130.2,61.3c-14,38.5-3.4,80,23.8,107.2l0,0l19.7,19.7l-7.3,7.3
	c-1.3,1.3-0.4,3.5,1.4,3.5h45.5V277c0-1.8-2.2-2.7-3.5-1.4l-7.3,7.3l-19.7-19.7l0,0c-16.3-16.3-22.7-41.2-14.3-64.3
	c11.6-31.8,46.7-48.2,78.5-36.6c10.8,3.9,22.8-1.8,26.4-12.8C218.3,138.8,212.2,127.3,201.7,123.6z"/>
</svg>
